<mxfile host="app.diagrams.net" modified="2020-10-27T15:17:23.393Z" agent="5.0 (Windows NT 10.0; Win64; x64) AppleWebKit/537.36 (KHTML, like Gecko) Chrome/86.0.4240.111 Safari/537.36" etag="oF6EwIkgP1KpNpeTcQYL" version="13.8.5" type="github">
  <diagram name="Page-1" id="c7558073-3199-34d8-9f00-42111426c3f3">
    <mxGraphModel dx="2248" dy="700" grid="1" gridSize="10" guides="1" tooltips="1" connect="1" arrows="1" fold="1" page="1" pageScale="1" pageWidth="826" pageHeight="1169" background="#ffffff" math="0" shadow="0">
      <root>
        <mxCell id="0" />
        <mxCell id="1" parent="0" />
        <mxCell id="2" value="&lt;p style=&quot;margin: 0px ; margin-top: 4px ; text-align: center ; text-decoration: underline&quot;&gt;&lt;strong&gt;Process 1&lt;br&gt;&lt;/strong&gt;&lt;/p&gt;&lt;hr&gt;&lt;p style=&quot;margin: 0px ; margin-left: 8px&quot;&gt;System Study&lt;/p&gt;" style="verticalAlign=middle;align=center;overflow=fill;fontSize=12;fontFamily=Helvetica;html=1;rounded=1;fontStyle=1;strokeWidth=3;fillColor=#E6FFCC" parent="1" vertex="1">
          <mxGeometry x="-270" y="140" width="110" height="90" as="geometry" />
        </mxCell>
        <mxCell id="4" value="Investors" style="whiteSpace=wrap;align=center;verticalAlign=middle;fontStyle=1;strokeWidth=3;fillColor=#FFFFCC" parent="1" vertex="1">
          <mxGeometry x="-250" y="341" width="90" height="60" as="geometry" />
        </mxCell>
        <mxCell id="5" value="ON-DEMAND SYSTEM DEVELOPMENT" style="shape=process;whiteSpace=wrap;align=center;verticalAlign=middle;size=0.0475;fontStyle=1;strokeWidth=3;fillColor=#FFCCCC" parent="1" vertex="1">
          <mxGeometry x="-340.0000000000001" y="510" width="400" height="50" as="geometry" />
        </mxCell>
        <mxCell id="0vxYScD-1TfTihXUmQXF-145" value="" style="shape=image;verticalLabelPosition=bottom;labelBackgroundColor=#ffffff;verticalAlign=top;aspect=fixed;imageAspect=0;image=data:image/png,iVBORw0KGgoAAAANSUhEUgAAAuwAAADMCAYAAAAoE/bjAAAgAElEQVR4Ae3dB3hUZd4F8Lkzk4ROEClSpAQEsS6KC59YEFgFXVRQLFixgRSRoqAfogIL0nRxAUEsKAioiLiCUgSi0gIYsuqnWFh3lWXFCoIhpJzveWcyyeRyExI8Sd44h+eZJ4EkJ5Pfe96ZP5M7d3zQHwlIQAISkIAEJCABCUjAWgGftddMV0wCEpCABCQgAQlIQAISQN7A7vP5oIsM1AF1QB1QB9QBdUAdUAfUgfLvQPT/UwoM7ImJ1XDNNRdjzZo5yMnZASBNlxIamILLjdMbWcrRpr2kPnL6aNZUlhxLOXIc1Uk52nRfE7ku4f2dP7IXGNh//nkDZsx4AGee2QrNmzfC+PGD8J//vKMBtARDu25AtfEjm82Wt+okp5Ny5DiafSFLjqUcOY7qpBxtub+Ovh7h/V3IwB79idu2LcRdd12FWrWqo0ePC/H3vz+JrKwPNLwfZXjXDag2fvQ+suF9dZLTSTlyHM2ekCXHUo4cR3VSjjbcV7uvQ3h/F2Ngj3zhgQOb8cwzD6N9+9PQqFE9jB59F7766m0N7oUM7roB1caP7B1b3qqTnE7KkeNo9oUsOZZy5Diqk3K05f46+nqE93cJBvboL/7ww1dxzz3X4/jjE/GnP3XAK69MweHD28toeE/FntQnMWfWg5g5M//y9EvP4bssXtmif95jeV83oLy1kCXHUo5yPJbbstL8GnVSnSzNfh1LtjqpTh5Lb0rza8KdPMaBPXLFDh3aigULJqBTp3aoV+84jBhxM3bufKOUB/cUPNcnCY7rbDaVT7gM7/+aWorfOxWfzeuNpIaNMXDeCmQX8sh6xEabnrPpjacsOZZylGPk9smWt+qkOmlLFyPXQ51UJyNdsOVtuJO/cWCP/mE+//xN3H//rahfvzbOP78tXnxxPNLTU0phgE7Bs9cnwfFXxYAFq2AO1TGXXw+Fj6vPztyGzOyChcvK2BY1YKfip68WY+2qOdjyf+/gcPTgnf0BDocepd+O3R/PwzvJL2Nveu5ZcrK3YsvECxH0BXHlhMU4kB6dWfD7GRdt+iNNovtSkvdlybGUoxxLsu/K4nPVSXWyLHpWku+hTqqTJelLWXxuuJPEgT1ypTMzt+O11x5Ht24dUbt2TQwadB3+8Y9XiYN7ZGCvhntefrdAbvoXD+GcqgHUPes27DwcHrT/+8ZNqBsMoOM9s4CslXiu/9moGXRCA7XPScAfet2Hz8xQnr0Wj13SEIknX4yhfU5BFb8576aDemdchw0/bMXm8echGPWovj/+DDz/5dYC3z9iYN5q03M2vSzlGL2vbHhfe1udtKGH0ddBnVQno/tgw/vqJLuTpTCwRxflX/9aiTFj+qFx4/o455xT8fTTY/DLL5sKHXKjv7bw93MHdieI1ud3xrXXXoJrr/sznlyzDjmZSzC0bW34407CjLTNADZjwW2t4Q/UxojX12Hnc5ejZiCIttcMw5pNz2L6zacg6FTBzU+9CWSvwrjO9UODdvUTz8F94+7Apa2rw3Eq4ZY5b+Gnj2bg4d6tEfAFcFbv/pg1dzp2RR59j36UPvd9lZVdVl5e4d36fX8PdZKzvnLkOJp9KEuOpRw5juqkHG2cD8L7u5QH9sgPnp2dihUrZuDKKy8KnR7yjjt6YsuW+cc4uEcG9gDqtWiFs846GWeddTpGLlqJbHyA5DEdEHSC6DF+ETIPPosbmlVD5RMuRfL+dzGjZxP4gw0x+OlZWLduLlbM6okGwQD+0HdK3sDuxDXDpI3vA0jFpzMuQZwviK4Pzgv9PXXKRaFDYq6a8lrUITbeBdcNqLdLpBMleStLjqUc5ViSfVcWn6tOqpNl0bOSfA91Up0sSV/K4nPDnSyjgT36B9qz5x1MmHAPWrRojNNPb4knnxyJn34yA3JxS1L4ITEm48AHw9Cmkh8NOg5A2urb0dgM5LdOxsGsFRh9Xl34HD8SKldClSq5l6rVcMG9M6MG9lPw9M4toeuzZ35PxPuC6DzqWQ3sxV6f4q5j8T9PN6DFtypqH8lRjkX1ozw+pk6qk+XRu6K+pzqpThbVj/L4WLiT5TCwR37YnJwdWLt2Lq67rhsSE6vhhhsuRXKyGYyPVpaiB/bQYTFn1Ya/0uno0/skBAPH4/43koHs9Zh6aSP445pjWorHYTm5h8Q4cUUM7FPDj7Bf+dirFegR9uKdBjNr3zK8MW8MXlyxBIeOugZHWyPux225AT38wxK8PPd/C5xOdNZTf8G2/2wL9fbnf87DM5PuwN23X4n+wwZiScqao/bk6H3nWdriiOz3sOW1RzEr6rSsM2f9L17dYH5LloasfW9i2ezBGNq/J27vdxMeXzgfP7ueSF6Wbu7vZY0jire3kb0B2978C+bMHoNFq5bgoEX72xrLIjuZij3b/orZrlMJL17/ljX72xrHYnVyG75InoCHh/fGbX2vwoix4/DxT6V5hreS3YbaYlnU/U36rufwjKuP5jTXcxY8g72WnN7aFsej3d+YQ6fTlj+EB++5Cn1vuxqjJoxD2rfh+3T3bX95/T1sWY4De/QP/v33yXj88RE45ZQktGrVFJMnD8XevesLGd4jh8Qk4MLbBmHatOGhy/S5s/CfTPNE0w+Q/LA5LMZBwO9D5QaX4d395sYgFVsnd0Ilx49WF9+GJWtfwMb10zFr7G14YfPGYj3C/uXcy5DgOGhw9p/xyKMPYvMPhZ973pqy4minwdyOnW8PxcUta4ZOldngvEHYnZV7ZhxL7thtsdy75DpUd8yTkfMvTqA27n/zffy6cwz+p1awwMf8lZti3JrCelyyO5Ho/XKs79vimH1wFq6oG1/Ayufz4w99pyIjawXGdm5Q8LStTgIufnAuMtRH123i0fZ2uGO73+qLE+PDT7Sv2boP/nHInv1dITqJrVh8Vxv4o/a9ud4tez6MdHWyhJ3chJWPXojEoIOEmnXR6uTGqFO9Mcat3+jKKfvbx8jtqi2dLPz+5l18MedSxLn6aK53oOr5eOsXO/7zY4tjkfc32Iq1Y89HNb8PVWqfgJaNayDo+FC7zXXYaomj6WXY0pKBPbJRzNuNG1/ArbdeHjrW/aqrumLlyqdgHo3P/5xtWDLwtBCq+SEil7jaf8Lag+GiHvjHA2hXKw6OPx7nDpyed6OafXAppl1/KqoFor6uWjP85Z33gex1mNK9EYJV2uLF3LO/7H3lWlQPxOPSR8LH2x/69zT0aFo1NEz4E9rixX9WhLPERH4j4X0azH0bByEpoRKandYENQM+aGAv/I5i76vXoprjoHXvR/Bj7ulEDxzcGnqULX3XNIwcPhLrP1qFrz+cgMuaVIYZQtveNlWDpmuoyT44E5fXiUdc4kVY8d3G3FOzbkGGeWQoayXmPnAz5ixfjN17lmPRvWcj3vGh1ik34ePcMz/l3xYUvlal+Tm23BEBRe9tY5CT/jKGnFUbiS2ahoZ2DezenSmyk2Zgv/NkBOJOwSOvPIE33piON954Eu99tF6PsLv29tE6eSDtPpxeJYAT2t2Erd+HH/DKOZSCQ5Y8Kmz2jC37u6j7m8N7l2LV300Pw5f5D1+EGn4f6rS9DZ/pdjJqXkxDUXs759AL6NuiOuISO2Kp+U151tsYc2E9+IMnYuIG2/4TaeHAHrmj3bdvA5566n9DTypt2rQBxo4dgG++WV1gISKfW7K3qfj566XYkPwsNmxbir0Hw+dvL25G5v6VSHn3GaR8ug5ZR9xY5d8Z2LLp829AjzwNpvmZ07+chbmLF+E/mwajRbyjgb2INY3cgLa5bnzRhw1lJ2Nq94ahgb3dXX/VwO4yzbsBrdUVa3L/k13Y/tuz5HrUCjio36E/vgr9Bi1/jxX2NaX97xVlb5vfNm6d1gXV4hri/sUj0blGEBrYvftTdCdzB/aEc/H3fXY8eunueMXoZO5vv/1V0X/+GsJ9ufdaum1K+ndbLIt/f7MOT/ZsBr9TFTfOXKb/RJbg/iYnYyHualMT/kqtMW3Tu8jcvwD9Tk9EoMY5WPRV4Q/IlrRTv/Xzw520eGCP/gE/+GAR+vfvjeOOq4HLLjsfy5b9FVlZJRu0o/PK4n1bNn3ewO5xGsxoh31bNLBHe3i9H74B9aF60z+gtzmd6LXd0O8vM/CL6wYi4+vJuLheApxAPYz8+zpr7phs6WRkOPLHn4AuV18cOjXr9TcPwKbc41iz9y/F4lkjMWVsH1zQrCqC1Zph1JKjv7qw15qVxr/Z4ni0vZ3x9VR0P6EyTu39MPb8MFkDu2ufRnej6E6GB3Z/sD66XtcdN/W9GmOeeBxfhA61LJ2hMfq6Fef9itHJzXjq6qYwhxH+qU83XHhWc7Rqcwp6DngAH1v0HyFbLIt7f3MgbQROrexH5QaXYt2P9sxFtjgWvbdT8eELV+PESg6C1RrijFa1EFelEfrNWWzNA21m/4ctK8jAHrnBOnhwC55/fizOPfdMNGhQBw8+eAd27VphzUAUuZ75wDbcmEeO+fc6DWb+9dPAnm8RvY7R70duQBNqN0Tb0OlET0bXfuPxY9Svc3MylmPaFUkIOEG0vWGcNU8AsqmTeTegwRpo1daclvVknN2hJ97+b/iJPr/+3yicUdkfPtzNCaDB6Z0wadmyIn+jFb1Opf2+LXdE+QO7197egMV3nYqExHaY/1kKsn6eooG9OAO7Zye3Y9XDF6LVyS1w5ulNUa9aAI7PQeOOd+NTS54PUCE6mb0eU7o3CO3rxKZn4Jq+l+Pi02rD7wTDL2xYxPqU9p6OzrfFsjj3N8BGLLi9Tej+pvPIZwu+cns5e9rieLT7m4xvX8B9nRrmPUclvlZLDJn7Ut6h1NHdKK/3w5YVbGCPxvr449dw7703oE6dWujS5Y9YvHgSMjLseWavLWXNu1P3ex8SEzHVwF7cgd1BoYfEZK3BvDtPR7zjR/NOA/ChRY/AmXW2pZORG9C4Ig6JycrchgM/vIXlUy9F/aCDQLUz8ewn4dOtRjpbXm9tcSxqb2f99DguqR2POqdegCHDbsLQwRehabyD+OPb4K7xU6x5kMMWy+J0MtK39H9PQfcGCXCCTTBpkx3HudriWFQngQ2YfnljOMGGeU8y3bd1CE6K96PuH/upk64BOzywF3F/Yw5p3TUWHRODCFRvhwVFvPJ6pLtl+daWTha1t81zfEa0r4dAwokY/OwL2L78HlzQKAH+uEYYu/Y9yzpZgQf2SPHMkL5o0WPo3Pkc1K17HIYOvRGffPJ6uUPbUtaib0Dzh1QN7PkWkW653xZ5A5qdjCXDzkEVx0HTC+7EBxadpizyc9jSyaJuQIHtOHQo/zjh7F+exJ/rxMPnPw4jltlxA2qLY1F7O+PbibigesGzFpnrbS4J9bqX++1jxepkwdsGc9xrv1MSQ4Pn+GQN7JG1DL+NPBHa6wGibXjlrjYIhI5hfyfUwQMf3Y/TzOumnDdQnSzxwL4Vb993NgKOH2fcOAH7XV9fcF0KdrgsPmbL7WRR9zeRuadhp3tzfxv+ATaPPy/0ApmXPvqSZZ38HQzs0cX78svleOCB23HCCcejY8c/YN68sfj11/J5VM6WsubdqTvep8E8/N1CzJt+HyYOvxB1gw5qtLgQj069Dy+/v8qyspb9DU50t8z7kV9R1j+7Bybnnk502hMP4f2vtuKHVX1DjwQ7gRpod8lFMGc4Mpfrbr8Pn+hZ+wW6FLkBDVRtjYGPDcs9Net9eHHNmzj84xR0a9IK1wy4HRMnDUS/7i2Q4PgQl9gBr/zbjicBVYy9vQV7dr2BTz9dFrr837ZROLdaADVaXI63dyUXWA93z8vy77ZYFtXJzEMvYvhlF2HAA4Mw+bG70b9HK1RxfKjW5HK8b8mx17Y4Fn1/k4p/LuiFmgEHTc6/Ea+t/hum3NAGQSce3ca8qE66Bu6i7m/MHs349glcdoJ5NLgpJm204z+O0bcdtnSyqL194LPRaFc1gPi6Z2Piq3Oxcd1k3H1uffj9NTF4cfg/ldE/U3m9H7b8nQ3sEczMzO14/fUncOml56N27Zq4++7eSE1dXKY3CLaUFSj6NJj7Ng1C89xzNJvrHL4E0GHgzDL1iqyd11tbLH9cfQcauq38NTDk1Xfx7Wt9kBh1utCIZTCxC1Zbcj5XWxxzDj2PW5JqFDzXus/BKX0m4FDmMkzq2RpV/LlddBzUaHQmRr/8uo5hd92hH21vR++l7P3TcVmdSqjTti8+teQ/kOb6VYROpmcswvA/1kcg8hoMTgB1W3fC7Pf1hPLojoXfL/r+JifjTTzZ5xRUzrV0AlXR7toR+ORA/m/Vjsws2wdrbOlkUfc35nVlPp7VHVX8fiRdMhzfWHIGrei1s8WxyPub7Pfx1viuaFA5/DoV5jr74xLRuf84q0zDlr/TgT26NF9/vQqPPjoATZqcgLPPboPZs0dj//7S/9+oLWWNtqio78uSc4dVcRxT8VPuqVc3p72F/VFP6rWhwxXHkdOb0jSvOJZb8c0nLyF53XPY+vFq/GrRK++a9ak4jqaTH2DvF4vwbvI8fPSvDdachjDS84plae8er0iOGT++jW3vP4v17y3AF9+Wz1EZkf55vQ1bxsDAHvnhs7NT8fbbs9CrV5fQizL17XsFNm0qvV/DVaSyRoxsfStLzo2yHOVo2x5XJ9VJdZLTATn+Ph3NuoZvJ49pYN+MtOVj8NCwa3DHXTdi0nNPY3d69CuR2o/27bfrMGnSvTjppCY49dQWeOKJ+/DDD+9SDwHRHRGvB7LkWMpRjrpT53RAjr9Px/zh6Pf785VVd3V/w+tQ2LLEA/sWrHq4I6r5fUhIrIsWzY5DJX8crnnCvLpWKj6b1xtJDRtj4LxivshJ9lr8rU8bNG75J7xhXhb2iGM0eT9wYdnr1z+DPn26IzGxGq6/vjvWrZtLuR4qK2/tZMmxlKMcC7sdLK9/VyfVyfLqXmHfV51UJwvrRnn9e7iTJRzYsw8+hV71KyFQrR0W7EoJHYv2zdbH8cbmZCB7K7ZMvDB0OpwrJyzGgfRtecemZfz0Frasm42V6+bjqx/zB/Os9DfwYMe6cOJOx9Mfv4f0jPwnnhzevzL0NWs3voYfMkr/Efwff3wP06ffj9NOa4mWLU/ExIn34L//XXvMw7s2PWfTmw0iS46lHOVYXnc4hX1fdVKdLKwb5fXv6qQ6WV7dK+z7hjtZwoE9a9/juKRWHPwJLTFh3eq8gdw8iSR87srIWUZ88Mefgee/TMbb47ugQZX8Z+AGqzfDA6+tQHbmGxjZvk5oGDNXxlwanDcIu7M+wMcv34zTasflnUWiVlInLEgr/SeKRrA2b56P22/vGTrWvWfPzlixYgbMMfCRjxfnrTY9Z9Mba1lyLOUox+LcdpXl56iT6mRZ9q0430udVCeL05Oy/JxwJ0s4sCN7DWZcnRR6CVd/XE2073kzXt2+NjS4//TRDDzcuzUCvgDO6t0fs+ZOx66D72B2/84YNHE81m5eiJWzrkTDoIOGFw7Bt1lbsH3ZCPRoVQ1OsBFuHT8K85a/il92T8Kf6sajRlIXzF05D6vm9kazBAfNu91f5i/zbs4mM2fOQ2jX7hSceOIJePjh/vj3v1cWa3DXpudserMpZMmxlKMcy/JOpjjfS51UJ4vTk7L8HHVSnSzLvhXne4U7WdKBHWnI2vcqnryrPepXCj9q7q/UEAPnvRY6hj11ykWhQ2KummL+nr/oOenvYmfqfCS/fQ/OqRpA7dNvCZ8LOOttPHR+XTihR+PDL4ry7xd6oooTQLubH8A76+Zi3ZoxuKJZFVQ+4TK892vJHuUuDkRxP2fHjpcxcOC1ofO6d+9+HpYufQLmfO+Ffb02ff76F2ZU3H+XJcdSjnIs7p4rq89TJ9XJsupacb+POqlOFrcrZfV54U4ew8AeuYL7/jkXj/Y+OfQqhNWaXYVt6dtx5MC+EasnX4pmNYJw/EFUqhIXevGJ4067Ofzqj0cM7Kn4YHInBH0+BOMTUKVKpbxL3ZOvw9ZyHNgjP7d55dQXXhiH8877Q+gVVUeO7Isvvlh+xOCuTc/Z9MZdlhxLOcoxcjtmy1t1Up20pYuR66FOqpORLtjyNtzJkg7s2VuRnpG/mBn/GY+O1QKIS+yCNQe3IXVq+BH2Kx97NfQIe8bX49CxehDHndobG/ekIPvgdHRLjEP0wD7mgnqhJ50++7l5Emsqvnj6MiQ4QXQZ9Zw1r2xY2KKZl/0ePvwm1K17HDp1aoeXXpqAQ4fCvynQps/vSWF+xf13WXIs5SjH4u65svo8dVKdLKuuFff7qJPqZHG7UlafF+5kCQf2fZsH49QT2+D6gbdj4mMDcNclzRHnOEi6dCT2ZKXiy7lm2HbQ4Ow/45FHH8S6baNwTpUAarS4BC+smomZQ89FrYCTP7BnJ2PaZY3g+Kviwr534i9PPYU9Hz+Is6sHULnBHzFx0Wxs2vQslswdjIdmPYfDUYfZlBVUcb5PRsY2vPzyZHTt2h516tTCkCF99Kgwca10A6ob0OLsw7L6HPWR00ezXrLkWMqR46hOyrGs7kdK8n3C+7uQgd18UBcZqAPqgDqgDqgD6oA6oA6oA+XbgfxxHfBF/mIWpSSTvz7X+3+kYceIqt7+FgFZ/ha9/K+VY77Fb3lPjr9Fr+DXyrKgx7H+TY7HKnfk18nySJNj+Rc5Houa99e4LTWwEw/hMP+JcQN7L4P+tTgCsiyO0tE/R45HNyrOZ8ixOErF+xxZFs/paJ8lx6MJFf/jsiy+VVGfKceidEr2MbelBnYN7CVrUBl+trusZfitf1ffSo6c5ZQjx9GkyJJjKUeOozopR54AL8m9vzWwa2DntYuc5C4rOT5m4uTIWWo5chxNiiw5lnLkOKqTcuQJ8JLc+1sDuwZ2XrvISe6ykuNjJk6OnKWWI8fRpMiSYylHjqM6KUeeAC/Jvb81sGtg57WLnOQuKzk+ZuLkyFlqOXIcTYosOZZy5Diqk3LkCfCS3PtbA7sGdl67yEnuspLjYyZOjpylliPH0aTIkmMpR46jOilHngAvyb2/NbBrYOe1i5zkLis5Pmbi5MhZajlyHE2KLDmWcuQ4qpNy5Anwktz7WwO7BnZeu8hJ7rKS42MmTo6cpZYjx9GkyJJjKUeOozopR54AL8m9vzWwa2DntYuc5C4rOT5m4uTIWWo5chxNiiw5lnLkOKqTcuQJ8JLc+1sDuwZ2XrvISe6ykuNjJk6OnKWWI8fRpMiSYylHjqM6KUeeAC/Jvb81sGtg57WLnOQuKzk+ZuLkyFlqOXIcTYosOZZy5Diqk3LkCfCS3PvbyoE9+5c3sXTmQNzbrxf6DxuAhcnLkVFgsN6E1BUT8PSzT2LXrzuAAh9LK9e/u4F5Sxd7SbLkrLkc5cgR4KWokxxLOXIcTYosOZZy5Dh6ddK6gT37wEIM71AffieI2o0bo0mdyggktMX8r7aGBvGD/3oao3qchEqOD078GXj+y/C/2zK0q6ylV1ZecmwlqZOc9ZYjx9GkyJJjKUeOozopR54AL8m9v60b2Pe+3geJAR+adBmK3Zk7kJOZjA2LpyJtXypyMhbi7lNrocaJSUg6LqCBndcLK5PcZbXySlaAKyVHziLJkeNoUmTJsZQjx1GdlCNPgJfk3t/WDey75/cKPXp+/JnXI+W77QUPb8laiSVzJuGT717CwNNqaWDn9cLKJHdZrbySFeBKyZGzSHLkOJoUWXIs5chxVCflyBPgJbn3t3UDe8bXU9G9QULoBr3S8S3RZ9Qj+Oj7goN7TsbLGth5nbA2yV1Wa6+o5VdMjpwFkiPH0aTIkmMpR46jOilHngAvyb2/rRvYzbHoe7dPwM0dGyPe8YVu2BOTumLp5yl5j7ZrYOcVwuYkd1ltvq42Xzc5clZHjhxHkyJLjqUcOY7qpBx5Arwk9/62cmAPP4E0BZ+uHIkerWvA8fnRYcAMHM49G4wGdl4hbE5yl9Xm62rzdZMjZ3XkyHE0KbLkWMqR46hOypEnwEty72/rBvas9JS8wRxIxc5Z3RDnc3DyteNxSAM7rwkVIMld1gpwla28inLkLIscOY4mRZYcSzlyHNVJOfIEeEnu/W3ZwL4dq0e1R1K7zhgyehAmPtIHnZpXheOviltmL0N29rtIXvAAHp/SFxc0SoATbIgbH7oXf3vhGfyQVb7nX4+cVtINzFu62EuSJWfN5ShHjgAvRZ3kWMqR42hSZMmxlCPH0auTlg3sqfhmzWC0b1gZji98/Lo/oTa6D5mI3Yd3ICdjEe4+JTG0sUwpIpfqza/GtnQ7XkBJZS29svKSYytJneSstxw5jiZFlhxLOXIc1Uk58gR4Se79bdnAHn6UPCdzAz7f8SI2bFmC3T9vy3uyaeRRbJvfuoF5Sxd7SbLkrLkc5cgR4KWokxxLOXIcTYosOZZy5Dh6ddLKgd3mgfxo101lLb2y8pJjK0md5Ky3HDmOJkWWHEs5chzVSTnyBHhJ7v2tgT33iaxHG8SL+3E3MG/pYi9Jlpw1l6McOQK8FHWSYylHjqNJkSXHUo4cR69OamDXwM5rFzlJG58DKkc5cgR4Keokx1KOHEeTIkuOpRw5jl6d1MCugZ3XLnKSNj4HVI5y5AjwUtRJjqUcOY4mRZYcSzlyHL06qYFdAzuvXeQkbXwOqBzlyBHgpaiTHEs5chxNiiw5lnLkOHp1UgO7BnZeu8hJ2vgcUDnKkSPAS1EnOZZy5DiaFFlyLOXIcfTqpAZ2Dey8dpGTtPE5oHKUI0eAl6JOcizlyHE0KbLkWMqR4+jVSQ3sGth57SInaeNzQOUoR44AL0Wd5FjKkeNoUmTJsZQjx9GrkxrYNbDz2kVO0sbngMpRjhwBXoo6ybGUI8fRpMiSYylHjqNXJwsM7AZaFxmoA+qAOqAOqAPqgDqgDqgD5duB6PG/wMBe3BcH0ueloTADU2794QjIUo4cAU6K+shxNCmy5FjKkStNrM8AABoZSURBVOOoTsqRJ8BLcu/vvOky/IHCB9HCBlT9e0EzNzBv6WIvSZacNZejHDkCvBR1kmMpR46jSZElx1KOHEevTmpg1zHsvHaRk7TxOaBylCNHgJeiTnIs5chxNCmy5FjKkePo1UkN7BrYee0iJ2njc0DlKEeOAC9FneRYypHjaFJkybGUI8fRq5Ma2DWw89pFTtLG54DKUY4cAV6KOsmxlCPH0aTIkmMpR46jVyc1sGtg57WLnKSNzwGVoxw5ArwUdZJjKUeOo0mRJcdSjhxHr05qYNfAzmsXOUkbnwMqRzlyBHgp6iTHUo4cR5MiS46lHDmOXp3UwK6BndcucpI2PgdUjnLkCPBS1EmOpRw5jiZFlhxLOXIcvTqpgV0DO69d5CRtfA6oHOXIEeClqJMcSzlyHE2KLDmWcuQ4enVSA7sGdl67yEna+BxQOcqRI8BLUSc5lnLkOJoUWXIs5chx9OqkBnYN7Lx2kZO08TmgcpQjR4CXok5yLOXIcTQpsuRYypHj6NVJDewa2HntIidp43NA5ShHjgAvRZ3kWMqR42hSZMmxlCPH0auTVg7s2b+8iaUzB+Lefr3Qf9gALExejozcwfrnf87DM5PuwN23X4n+wwZiScoaZJOHbvyGPJW19MrKS46tJHWSs95y5DiaFFlyLOXIcVQn5cgT4CW597d1A3v2gYUY3qE+/E4QtRs3RpM6lRFIaIv5X23FrzvH4H9qBUM39uYHMRd/5aYYt2Y9fsuQzfxaNzBv6WIvSZacNZejHDkCvBR1kmMpR46jSZElx1KOHEevTlo3sO99vQ8SAz406TIUuzN3ICczGRsWT0XavlSk75qGkcNHYv1Hq/D1hxNwWZPK8Pn8aHvb1LxH4JnD97FkqaylV1ZecmwlqZOc9ZYjx9GkyJJjKUeOozopR54AL8m9v60b2HfP74VKjg/Hn3k9Ur7bXvgj59nJmNq9YWhgb3fXXzWw8zpiTZK7rNZcsQp2ReTIWTA5chxNiiw5lnLkOKqTcuQJ8JLc+9u6gT3j66no3iAhdINe6fiW6DPqEXz0/ZGDe8bXk3FxvQQ4gXoY+fd1hQ/2v+F4dD3CzivesSS5y3osGfoaDUesDqiPLEl1kiWpTrIk1UmWpDrJkjyyk9YN7GZI3rt9Am7u2BjxTvg49cSkrlj6eUreUJ6TsRzTrkhCwAmi7Q3jsDcrLe9jxzJkM79GZS29svKSYytJneSstxw5jiZFlhxLOXIc1Uk58gR4Se79beXAHh6gU/DpypHo0boGHJ8fHQbMwGHzaHnWGsy783TEO3407zQAH+5PtWZYN9fbDcxbuthLkiVnzeUoR44AL0Wd5FjKkeNoUmTJsZQjx9Grk9YN7FnpKeHBPHQoSyp2zuqGOJ+Dk68dj0PZyVgy7BxUcRw0veBOfPCTXcO6BnZeUb3Kyk2PnTTdgHLWWo4cR5MiS46lHDmO6qQceQK8JPf+tmxg347Vo9ojqV1nDBk9CBMf6YNOzavC8VfFLbOX4ftVfVE/6MAJ1EC7Sy7CVVd1DV2uu/0+fHJ4hxWPtLuBeUsXe0my5Ky5HOXIEeClqJMcSzlyHE2KLDmWcuQ4enXSsoE9Fd+sGYz2DSvDiZxnPaE2ug+ZiN2Hd+Db18KnfDSFiL4EE7tg9S92PNquspZeWXnJsZWkTnLWW44cR5MiS46lHDmO6qQceQK8JPf+tmxgDz95NCdzAz7f8SI2bFmC3T9vs+KR8+I+MdUNzFu62EuSJWfN5ShHjgAvRZ3kWMqR42hSZMmxlCPH0auTVg7sxR2Obfw8lbX0yspLjq0kdZKz3nLkOJoUWXIs5chxVCflyBPgJbn3twZ28nna3cC8pYu9JFly1lyOcuQI8FLUSY6lHDmOJkWWHEs5chy9OqmBXQM7r13kJG18Dqgc5cgR4KWokxxLOXIcTYosOZZy5Dh6dVIDuwZ2XrvISdr4HFA5ypEjwEtRJzmWcuQ4mhRZcizlyHH06qQGdg3svHaRk7TxOaBylCNHgJeiTnIs5chxNCmy5FjKkePo1UkN7BrYee0iJ2njc0DlKEeOAC9FneRYypHjaFJkybGUI8fRq5Ma2DWw89pFTtLG54DKUY4cAV6KOsmxlCPH0aTIkmMpR46jVyc1sGtg57WLnKSNzwGVoxw5ArwUdZJjKUeOo0mRJcdSjhxHr05qYNfAzmsXOUkbnwMqRzlyBHgp6iTHUo4cR5MiS46lHDmOXp0sMLAbaF1koA6oA+qAOqAOqAPqgDqgDpRvB6LH/wIDu42vHFrRrpMpt/5wBGQpR44AJ0V95DiaFFlyLOXIcVQn5cgT4CW593fedBn+QBoq2oBs2/V1A/OWLvaSZMlZcznKkSPAS1EnOZZy5DiaFFlyLOXIcfTqpAZ2HcPOaxc5SRufAypHOXIEeCnqJMdSjhxHkyJLjqUcOY5endTAroGd1y5ykjY+B1SOcuQI8FLUSY6lHDmOJkWWHEs5chy9OqmBXQM7r13kJG18Dqgc5cgR4KWokxxLOXIcTYosOZZy5Dh6dVIDuwZ2XrvISdr4HFA5ypEjwEtRJzmWcuQ4mhRZcizlyHH06qQGdg3svHaRk7TxOaBylCNHgJeiTnIs5chxNCmy5FjKkePo1UkN7BrYee0iJ2njc0DlKEeOAC9FneRYypHjaFJkybGUI8fRq5Ma2DWw89pFTtLG54DKUY4cAV6KOsmxlCPH0aTIkmMpR46jVyc1sGtg57WLnKSNzwGVoxw5ArwUdZJjKUeOo0mRJcdSjhxHr05qYNfAzmsXOUkbnwMqRzlyBHgp6iTHUo4cR5MiS46lHDmOXp3UwK6BndcucpI2PgdUjnLkCPBS1EmOpRw5jiZFlhxLOXIcvTpp5cCe/cubWDpzIO7t1wv9hw3AwuTlyMgdrL//dA7+NvZW9LvtStw9YjBe374W2eShG78hT2UtvbLykmMrSZ3krLccOY4mRZYcSzlyHNVJOfIEeEnu/W3dwJ59YCGGd6gPvxNE7caN0aROZQQS2mL+V1vx62cPo0PNYOjG3vwg5hKoehKmbdiA3zJkM7/WDcxbuthLkiVnzeUoR44AL0Wd5FjKkeNoUmTJsZQjx9Grk9YN7Htf74PEgA9NugzF7swdyMlMxobFU5G2LxXpu6bh/qEjsDptJXZ/Pgt3tj0Oji+IziOfRdZveFRcAzuvYMwkbXyOphzlyBHgpaiTHEs5chxNiiw5lnLkOHp10rqBfff8Xqjk+HD8mdcj5bvtRTxyvhnP3dgy9Ej8FRMWW3NYjMpaemXlJcdWkjrJWW85chxNiiw5lnLkOKqTcuQJ8JLc+9u6gT3j66no3iAhdINe6fiW6DPqEXz0ff7g/n3ak5gxfQTGDDwfjSr5UafNFVj1zbYiBvu0Mv2YG5i3dLGXJEvOmstRjhwBXoo6ybGUI8fRpMiSYylHjqNXJ60b2M3hKXu3T8DNHRsj3gkfp56Y1BVLP08BkIqUCecjmHv8uj9YA+173YbVu7aU6VBe1CE0KmvplZWXHFtJ6iRnveXIcTQpsuRYypHjqE7KkSfAS3LvbysH9vBAnIJPV45Ej9Y14Pj86DBgBg6HjlNPRWZGCvZ++RzGXpEEv8+HRucPxFeZO6wY2t3AvKWLvSRZctZcjnLkCPBS1EmOpRw5jiZFlhxLOXIcvTpp3cCelZ6SO5ibQ1lSsXNWN8T5HJx87XikZ2xFRnb+IS7/Xdwb1R0fEup3R/LBVA3svJ5YkaSNz1kGOcqRI8BLUSc5lnLkOJoUWXIs5chx9OqkZQP7dqwe1R5J7TpjyOhBmPhIH3RqXhWOvypumb0M/3q+J5qdeQHuGT0Ijz16Azq3qA7H5yCp+0h8m5U/yBd1yEppf0xlLb2y8pJjK0md5Ky3HDmOJkWWHEs5chzVSTnyBHhJ7v1t2cCeim/WDEb7hpXhRI5TT6iN7kMmYvfhHTjw4aPodlIi/LnHtjv+BLQ8/xqs+FLHsPMqYk+Su6z2XLOKdU3kyFkvOXIcTYosOZZy5Diqk3LkCfCS3PvbsoE9/Ch5TuYGfL7jRWzYsgS7f3adASZ7E/754XwkJ7+Aj/71njWnc4w8cu8G5i1d7CXJkrPmcpQjR4CXok5yLOXIcTQpsuRYypHj6NVJKwf2yPBbEd+qrKVXVl5ybCWpk5z1liPH0aTIkmMpR46jOilHngAvyb2/NbCTXyHVDcxbuthLkiVnzeUoR44AL0Wd5FjKkeNoUmTJsZQjx9GrkxrYNbDz2kVO0sbngMpRjhwBXoo6ybGUI8fRpMiSYylHjqNXJzWwa2DntYucpI3PAZWjHDkCvBR1kmMpR46jSZElx1KOHEevTmpg18DOaxc5SRufAypHOXIEeCnqJMdSjhxHkyJLjqUcOY5endTAroGd1y5ykjY+B1SOcuQI8FLUSY6lHDmOJkWWHEs5chy9OqmBXQM7r13kJG18Dqgc5cgR4KWokxxLOXIcTYosOZZy5Dh6dVIDuwZ2XrvISdr4HFA5ypEjwEtRJzmWcuQ4mhRZcizlyHH06qQGdg3svHaRk7TxOaBylCNHgJeiTnIs5chxNCmy5FjKkePo1ckCA7uB1kUG6oA6oA6oA+qAOqAOqAPqQPl2IHr8LzCwV8RXFrXtOpty6w9HQJZy5AhwUtRHjqNJkSXHUo4cR3VSjjwBXpJ7f+dNl+EPpMG2AbiiXR83MG/pYi9Jlpw1l6McOQK8FHWSYylHjqNJkSXHUo4cR69OamDXMey8dpGTtPE5oHKUI0eAl6JOcizlyHE0KbLkWMqR4+jVSQ3sGth57SInaeNzQOUoR44AL0Wd5FjKkeNoUmTJsZQjx9GrkxrYNbDz2kVO0sbngMpRjhwBXoo6ybGUI8fRpMiSYylHjqNXJzWwa2DntYucpI3PAZWjHDkCvBR1kmMpR46jSZElx1KOHEevTmpg18DOaxc5SRufAypHOXIEeCnqJMdSjhxHkyJLjqUcOY5endTAroGd1y5ykjY+B1SOcuQI8FLUSY6lHDmOJkWWHEs5chy9OqmBXQM7r13kJG18Dqgc5cgR4KWokxxLOXIcTYosOZZy5Dh6dVIDuwZ2XrvISdr4HFA5ypEjwEtRJzmWcuQ4mhRZcizlyHH06qQGdg3svHaRk7TxOaBylCNHgJeiTnIs5chxNCmy5FjKkePo1UkN7BrYee0iJ2njc0DlKEeOAC9FneRYypHjaFJkybGUI8fRq5NWDuzZv7yJpTMH4t5+vdB/2AAsTF6OjAKDdSq+/ccsPDdnNJ6ZPxNf7k8FCnw8rdz+rrKWXll5ybGVpE5y1luOHEeTIkuOpRw5juqkHHkCvCT3/rZuYM8+sBDDO9SH3wmiduPGaFKnMgIJbTH/q615Q3jWT3Nx40nV4fh8cIIn4rGNG/M+Vt6DuxuYt3SxlyRLzprLUY4cAV6KOsmxlCPH0aTIkmMpR46jVyetG9j3vt4HiQEfmnQZit2ZO5CTmYwNi6cibV/kUfStWDO6PRISGqFVs0oa2HndsC5JG5+zJHKUI0eAl6JOcizlyHE0KbLkWMqR4+jVSesG9t3ze6GS48PxZ16PlO+2H/HI+cFPHkKHWgn4453jMaFHQw3svG5Yl6SNz1kSOcqRI8BLUSc5lnLkOJoUWXIs5chx9OqkdQN7xtdT0b1BQmjzVDq+JfqMegQffZ87uGevwcyrk1D5hIvw5jfrMf3yxhrYed2wLkkbn7MkcpQjR4CXok5yLOXIcTQpsuRYypHj6NVJ6wZ2cwz63u0TcHPHxoh3fKFNlJjUFUs/T8HuFbeicXw1XD99CbKxUQM7rxdWJmnjc5ZFjnLkCPBS1EmOpRw5jiZFlhxLOXIcvTpp5cAefuJoCj5dORI9WteA4/Ojw4DJmN6rKYJVm+PawTdi2LA+6HpSVfj8NdHppruxalfKEYfPlMcTUFXW0isrLzm2ktRJznrLkeNoUmTJsZQjx1GdlCNPgJfk3t/WDexZ6Sk4nHeKxlTsnNUNcT4Hra8ZhQndGoTODGN+iAIXfy2MeP09Dey8nliR5C6rFVeqAl4JOXIWTY4cR5MiS46lHDmO6qQceQK8JPf+tmxg347Vo9ojqV1nDBk9CBMf6YNOzavC8VfFLbOXYd+3b2Hnp8vwaeiyGGO61ocTbIiRry7DvqzyO/d69CP5bmDe0sVekiw5ay5HOXIEeCnqJMdSjhxHkyJLjqUcOY5enbRsYE/FN2sGo33DynmPpPsTaqP7kInYfXiH6xH0zZh9TXMEE07C9O2bXR8rv+FdZS29svKSYytJneSstxw5jiZFlhxLOXIc1Uk58gR4Se79bdnAHh60czI34PMdL2LDliXY/fM2a4bx6EfSC3vfDcxbuthLkiVnzeUoR44AL0Wd5FjKkeNoUmTJsZQjx9Grk1YO7IUNwxXh31XW0isrLzm2ktRJznrLkeNoUmTJsZQjx1GdlCNPgJfk3t8a2POe4Mo5jMYNzFu62EuSJWfN5ShHjgAvRZ3kWMqR42hSZMmxlCPH0auTGtg1sPPaRU7SxueAylGOHAFeijrJsZQjx9GkyJJjKUeOo1cnNbBrYOe1i5ykjc8BlaMcOQK8FHWSYylHjqNJkSXHUo4cR69OamDXwM5rFzlJG58DKkc5cgR4Keokx1KOHEeTIkuOpRw5jl6d1MCugZ3XLnKSNj4HVI5y5AjwUtRJjqUcOY4mRZYcSzlyHL06qYFdAzuvXeQkbXwOqBzlyBHgpaiTHEs5chxNiiw5lnLkOHp1UgO7BnZeu8hJ2vgcUDnKkSPAS1EnOZZy5DiaFFlyLOXIcfTqpAZ2Dey8dpGTtPE5oHKUI0eAl6JOcizlyHE0KbLkWMqR4+jVSQ3sGth57SInaeNzQOUoR44AL0Wd5FjKkeNoUmTJsZQjx9GrkwUGdgOtiwzUAXVAHVAH1AF1QB1QB9SB8u1A9PhfYGAH+dHmWMwz5dYfjoAs5cgR4KSojxxHkyJLjqUcOY7qpBx5Arwk9/7Omy7DH0hDLA7ZzJ/ZDcxbuthLkiVnzeUoR44AL0Wd5FjKkeNoUmTJsZQjx9GrkxrYyb9VUFlLr6y85NhKUic56y1HjqNJkSXHUo4cR3VSjjwBXpJ7f2tg18DOaxc5yV1WcnzMxMmRs9Ry5DiaFFlyLOXIcVQn5cgT4CW597cGdg3svHaRk9xlJcfHTJwcOUstR46jSZElx1KOHEd1Uo48AV6Se39rYNfAzmsXOcldVnJ8zMTJkbPUcuQ4mhRZcizlyHFUJ+XIE+Alufe3BnYN7Lx2kZPcZSXHx0ycHDlLLUeOo0mRJcdSjhxHdVKOPAFeknt/a2DXwM5rFznJXVZyfMzEyZGz1HLkOJoUWXIs5chxVCflyBPgJbn3twZ2Dey8dpGT3GUlx8dMnBw5Sy1HjqNJkSXHUo4cR3VSjjwBXpJ7f2tg18DOaxc5yV1WcnzMxMmRs9Ry5DiaFFlyLOXIcVQn5cgT4CW597cGdg3svHaRk9xlJcfHTJwcOUstR46jSZElx1KOHEd1Uo48AV6Se39rYNfAzmsXOcldVnJ8zMTJkbPUcuQ4mhRZcizlyHFUJ+XIE+Alufe3BnYN7Lx2kZPcZSXHx0ycHDlLLUeOo0mRJcdSjhxHdVKOPAFeknt/a2DXwM5rFznJXVZyfMzEyZGz1HLkOJoUWXIs5chxVCflyBPgJbn3twZ2Dey8dpGT3GUlx8dMnBw5Sy1HjqNJkSXHUo4cR3VSjjwBXpJ7f2tg18DOaxc5yV1WcnzMxMmRs9Ry5DiaFFlyLOXIcVQn5cgT4CW597cGdg3svHaRk9xlJcfHTJwcOUstR46jSZElx1KOHEd1Uo48AV6Se39rYNfAzmsXOcldVnJ8zMTJkbPUcuQ4mhRZcizlyHFUJ+XIE+Alufe31QP7rz+uxd792wCkISdjI/bseR+HQwN2Kn7+7zv4+dCO0MfMx225uIF5Sxd7SbLkrLkc5cgR4KWokxxLOXIcTYosOZZy5Dh6ddLagT3zu8fRrU48qjXthZRfN2P+ra3g99fEPa+sx0/v3o2m8Q5a9HgQP2TZM6yb/zSorKVXVl5ybCWpk5z1liPH0aTIkmMpR46jOilHngAvyb2/rR3Ys36aiaubVEPdM2/BPw5twauDTkdCpYYYveI97Nt8L9pUi8cZN47DvhwN7Lx62JXkLqtd167iXBs5ctZKjhxHkyJLjqUcOY7qpBx5Arwk9/62dmC35RCXkl4PNzBv6WIvSZacNZejHDkCvBR1kmMpR46jSZElx1KOHEevTmpgJx//rrKWXll5ybGVpE5y1luOHEeTIkuOpRw5juqkHHkCvCT3/tbAroGd1y5ykrus5PiYiZMjZ6nlyHE0KbLkWMqR46hOypEnwEty728N7BrYee0iJ7nLSo6PmTg5cpZajhxHkyJLjqUcOY7qpBx5Arwk9/7WwK6BndcucpK7rOT4mImTI2ep5chxNCmy5FjKkeOoTsqRJ8BLcu9vDewa2HntIie5y0qOj5k4OXKWWo4cR5MiS46lHDmO6qQceQK8JPf+1sCugZ3XLnKSu6zk+JiJkyNnqeXIcTQpsuRYypHjqE7KkSfAS3Lvbw3sGth57SInuctKjo+ZODlyllqOHEeTIkuOpRw5juqkHHkCvCT3/tbAroGd1y5ykrus5PiYiZMjZ6nlyHE0KbLkWMqR46hOypEnwEty728N7BrYee0iJ7nLSo6PmTg5cpZajhxHkyJLjqUcOY7qpBx5Arwk9/7WwK6BndcucpK7rOT4mImTI2ep5chxNCmy5FjKkeOoTsqRJ8BLcu/vAgO7+aAuMlAH1AF1QB1QB9QBdUAdUAfKtwPR43/ewB79j3pfAhKQgAQkIAEJSEACErBDQAO7HeugayEBCUhAAhKQgAQkIAFPgf8HfGv26ty+DYYAAAAASUVORK5CYII=;" vertex="1" parent="1">
          <mxGeometry x="-80" y="83" width="748" height="204" as="geometry" />
        </mxCell>
      </root>
    </mxGraphModel>
  </diagram>
</mxfile>
